<?xml version="1.0" encoding="UTF-8" standalone="no" ?>
<!DOCTYPE svg PUBLIC "-//W3C//DTD SVG 1.1//EN" "http://www.w3.org/Graphics/SVG/1.1/DTD/svg11.dtd">
<svg xmlns="http://www.w3.org/2000/svg" xmlns:xlink="http://www.w3.org/1999/xlink" version="1.1" width="500pt" height="500pt" viewBox="0 0 500 500" xml:space="preserve">
<desc>Created with Fabric.js 4.6.0</desc>
<defs>
</defs>
<g transform="matrix(1 0 0 1 250.19 250)" id="4LSehhsVAj-T4xA9D27eL"  >
<path style="stroke: rgb(214,75,75); stroke-width: 0; stroke-dasharray: none; stroke-linecap: butt; stroke-dashoffset: 0; stroke-linejoin: miter; stroke-miterlimit: 4; fill: rgb(0,0,0); fill-rule: nonzero; opacity: 1;" vector-effect="non-scaling-stroke"  transform=" translate(-194.7, -250)" d="M 338.25715 308.32562 L 360.08626000000004 259.53452000000004 L 370.94032000000004 340.10868000000005 L 368.76931 368.41874000000007 L 347.06120000000004 385.83977000000004 L 336.36914 385.83977000000004 C 317.84704 451.6849 257.32263 500.00000000000006 185.58216000000002 500.00000000000006 C 114.43069000000001 500.00000000000006 54.31238000000002 452.47490000000005 35.26018000000002 387.4587700000001 L 23.92912000000002 387.4587700000001 L 2.175010000000018 370.05574000000007 L 1.8207657603852567e-14 341.7756800000001 L 10.877060000000018 261.2875200000001 L 32.602170000000015 309.69162000000006 C 36.474190000000014 292.0505800000001 43.32223000000002 275.52055000000007 52.594270000000016 260.6555200000001 L 51.47326000000002 259.5345200000001 L 40.94721000000002 217.4304400000001 L 46.21024000000002 186.76438000000007 L 58.49030000000002 175.32636000000008 L 69.01635000000002 175.32636000000008 L 76.03339000000001 175.5603600000001 L 76.03339000000001 173.59936000000008 L 74.27938000000002 173.5723600000001 L 81.29642000000001 138.48629000000008 L 98.83951000000002 110.41723000000007 L 128.66266000000002 75.33116000000007 L 169.01187000000002 45.507100000000065 L 216.16811 33.227080000000065 L 256.72832 27.964070000000063 L 328.74978999999996 27.964070000000063 C 329.97579999999994 12.323040000000063 343.06985999999995 0.000010000000063570269 359.02295 0.000010000000063570269 C 375.78603999999996 0.000010000000063570269 389.39011 13.605040000000063 389.39011 30.367070000000062 C 389.39011 47.13010000000006 375.78504 60.734130000000064 359.02295 60.734130000000064 C 347.07588999999996 60.734130000000064 336.73283 53.82312000000007 331.77581 43.78310000000006 L 323.39277 50.76911000000006 L 314.62072 70.06715000000005 L 302.34066 103.39922000000006 L 302.34066 123.74926000000005 L 298.83164 152.52032000000005 L 298.83164 169.84735000000006 L 318.12973999999997 186.76538000000005 L 318.12973999999997 249.78051000000005 L 315.69372999999996 256.21252000000004 C 326.17877999999996 271.82455000000004 333.92882 289.42559000000006 338.25584999999995 308.3256200000001 z" stroke-linecap="round" />
</g>
</svg>